<svg width="1107" height="1116" viewBox="0 0 1107 1116" fill="none" xmlns="http://www.w3.org/2000/svg">
<path d="M276.579 586.209C273.079 589.614 117.089 918.012 25.5788 928.205C-17.9127 933.049 3.08629 903.881 22.5875 900.962C68.4106 894.103 179.086 945.718 256.578 928.205C326.086 912.496 302.259 720.598 283.578 756.964C265.586 791.99 352.586 1027.93 259.586 1115.5" stroke="white" stroke-dasharray="23 23"/>
<path d="M1032.59 1115.5C1125.59 1027.93 1038.59 791.99 1056.58 756.964C1075.26 720.598 1099.09 912.496 1029.58 928.205C952.086 945.718 841.411 894.103 795.587 900.962C776.086 903.881 755.087 933.049 798.579 928.205C890.089 918.012 1004 697.127 1049.58 586.209C1093.98 478.159 1091.98 445.486 1080.5 330.807C1071 235.943 990 176.106 953 154.701C882.324 113.814 762.5 142.539 737 0" stroke="white" stroke-dasharray="23 23"/>
<path d="M570 573.088C574.086 573.088 578.137 573.339 582.147 573.833L582.208 573.337C590.284 574.33 598.195 576.302 605.898 579.18L605.725 579.648C613.184 582.435 620.45 586.078 627.482 590.511L627.748 590.088C634.465 594.321 640.967 599.272 647.221 604.884L646.888 605.256C652.757 610.522 658.409 616.374 663.813 622.764L664.193 622.441C669.32 628.502 674.223 635.045 678.879 642.029L678.464 642.306C682.86 648.9 687.036 655.89 690.971 663.241L691.409 663.005C695.17 670.031 698.713 677.386 702.016 685.041L701.557 685.238C704.718 692.564 707.662 700.166 710.371 708.017L710.84 707.855C713.453 715.427 715.848 723.231 718.013 731.242L717.534 731.372C719.625 739.11 721.498 747.044 723.144 755.15L723.631 755.051C725.23 762.93 726.614 770.973 727.77 779.161L727.277 779.231C728.402 787.195 729.31 795.297 729.992 803.517L730.488 803.476C731.155 811.514 731.604 819.665 731.829 827.913L731.334 827.926C731.444 831.978 731.5 836.055 731.5 840.152C731.5 844.25 731.444 848.325 731.334 852.378L731.829 852.39C731.604 860.639 731.155 868.79 730.488 876.827L729.992 876.786C729.31 885.007 728.402 893.109 727.277 901.073L727.77 901.141C726.614 909.329 725.23 917.373 723.631 925.253L723.144 925.154C721.498 933.26 719.625 941.193 717.534 948.931L718.013 949.061C715.848 957.073 713.453 964.876 710.84 972.448L710.371 972.287C707.662 980.138 704.718 987.739 701.557 995.065L702.016 995.262C698.713 1002.92 695.17 1010.27 691.409 1017.3L690.971 1017.06C687.036 1024.41 682.86 1031.4 678.464 1038L678.879 1038.27C674.223 1045.26 669.32 1051.8 664.193 1057.86L663.813 1057.54C658.409 1063.93 652.757 1069.78 646.888 1075.05L647.222 1075.42C640.968 1081.03 634.465 1085.98 627.748 1090.21L627.482 1089.79C620.45 1094.23 613.184 1097.87 605.725 1100.66L605.898 1101.12C598.195 1104 590.284 1105.97 582.208 1106.97L582.148 1106.47C578.138 1106.96 574.087 1107.22 570 1107.22C565.914 1107.22 561.863 1106.96 557.853 1106.47L557.791 1106.97C549.715 1105.97 541.804 1104 534.101 1101.12L534.275 1100.66C526.816 1097.87 519.55 1094.23 512.518 1089.79L512.251 1090.21C505.534 1085.98 499.031 1081.03 492.777 1075.42L493.112 1075.05C487.243 1069.78 481.591 1063.93 476.187 1057.54L475.806 1057.86C470.679 1051.8 465.776 1045.26 461.12 1038.27L461.536 1038C457.14 1031.4 452.964 1024.41 449.029 1017.06L448.59 1017.3C444.829 1010.27 441.286 1002.92 437.983 995.262L438.443 995.065C435.282 987.739 432.338 980.138 429.629 972.287L429.159 972.448C426.546 964.876 424.151 957.073 421.986 949.061L422.466 948.931C420.375 941.193 418.502 933.26 416.856 925.154L416.368 925.253C414.769 917.373 413.385 909.33 412.229 901.142L412.723 901.073C411.598 893.109 410.69 885.007 410.008 876.786L409.511 876.827C408.844 868.79 408.395 860.639 408.17 852.39L408.666 852.378C408.583 849.339 408.532 846.286 408.511 843.221L408.5 840.152C408.5 836.055 408.556 831.978 408.666 827.926L408.17 827.913C408.395 819.665 408.844 811.514 409.511 803.476L410.008 803.517C410.69 795.297 411.598 787.195 412.723 779.231L412.229 779.161C413.385 770.973 414.769 762.93 416.368 755.051L416.856 755.15C418.502 747.044 420.375 739.11 422.466 731.372L421.986 731.242C424.151 723.231 426.546 715.427 429.159 707.855L429.629 708.017C432.338 700.166 435.282 692.564 438.443 685.238L437.983 685.041C441.286 677.386 444.829 670.031 448.59 663.005L449.029 663.241C452.964 655.89 457.14 648.9 461.536 642.306L461.12 642.029C465.776 635.045 470.679 628.502 475.806 622.441L476.187 622.764C481.591 616.374 487.243 610.522 493.112 605.256L492.778 604.884C499.032 599.272 505.534 594.321 512.251 590.088L512.518 590.511C519.55 586.078 526.816 582.435 534.275 579.648L534.101 579.18C541.804 576.302 549.715 574.331 557.791 573.337L557.852 573.833C561.862 573.339 565.913 573.088 570 573.088Z" stroke="white" stroke-dasharray="23 23"/>
<path d="M167.103 906.397C167.248 916.331 174.256 925.553 183.556 929.719C173.316 929.721 162.991 935.255 158.595 944.221C158.449 934.286 151.444 925.06 142.141 920.895C152.381 920.892 162.706 915.363 167.103 906.397Z" fill="white" stroke="white"/>
<path d="M283.612 568.355C281.768 578.125 286.797 588.499 295.088 594.347C285.043 592.406 273.809 595.875 267.7 603.833C269.541 594.062 264.516 583.687 256.223 577.841C266.269 579.781 277.503 576.313 283.612 568.355Z" fill="white" stroke="white"/>
<path d="M422.144 737.307C422.279 747.241 429.277 756.469 438.572 760.644C428.333 760.636 418.002 766.16 413.596 775.121C413.46 765.187 406.466 755.955 397.167 751.781C407.407 751.788 417.737 746.269 422.144 737.307Z" fill="white" stroke="white"/>
<path d="M704.494 986.383C702.346 996.093 707.048 1006.61 715.152 1012.7C705.172 1010.46 693.832 1013.6 687.476 1021.37C689.623 1011.66 684.927 1001.14 676.819 995.046C686.8 997.284 698.137 994.154 704.494 986.383Z" fill="white" stroke="white"/>
<path d="M1056.15 781.362C1059.3 790.814 1068.78 797.618 1078.93 798.934C1069.15 801.873 1060.96 810.12 1059.47 819.949C1056.33 810.497 1046.84 803.689 1036.69 802.375C1046.47 799.435 1054.66 791.191 1056.15 781.362Z" fill="white" stroke="white"/>
<path d="M1077.11 310.685C1080.53 320.046 1090.21 326.586 1100.4 327.622C1090.7 330.829 1082.76 339.299 1081.56 349.165C1078.13 339.803 1068.45 333.259 1058.27 332.225C1067.96 329.017 1075.91 320.551 1077.11 310.685Z" fill="white" stroke="white"/>
<path d="M763.05 66.6424C771.532 72.1629 783.316 71.7936 792.128 66.707C786.293 74.9028 785.094 86.3133 790.159 94.931C781.676 89.4125 769.893 89.7765 761.081 94.8658C766.915 86.6683 768.116 75.2603 763.05 66.6424Z" fill="white" stroke="white"/>
</svg>
