<svg width="185" height="214" viewBox="0 0 185 214" fill="none" xmlns="http://www.w3.org/2000/svg">
<path d="M159.891 34.2118C156.045 34.1903 155.381 27.5841 153.318 24.8623C150.218 20.7734 135.658 17.9864 146.814 13.5423C156.422 9.71493 153.645 2.16369 159.254 0C162.75 0.206939 163.312 7.47887 165.555 9.75826C170.438 14.7192 184.613 15.022 169.26 22.4606C162.279 25.8429 163.917 32.5833 159.891 34.2118ZM158.613 10.1477C157.044 13.1809 154.955 15.1127 152.402 17.3059C155.456 19.3988 157.158 21.3708 159.254 24.3872L159.891 22.8591C161.466 19.777 164.039 18.7576 167.006 17.3059C160.27 13.8899 162.254 13.3996 158.613 10.1477Z" fill="white"/>
<path d="M83.0222 45.1029C80.1536 37.0567 71.2373 26.9228 77.4445 19.6178C79.4685 17.2354 81.8274 16.5096 84.8571 16.2721L101.046 16.2609C103.948 16.2604 106.957 16.1023 109.846 16.3404C114.714 16.741 118.797 22.1163 117.908 26.907C117.272 30.3343 111.58 41.1991 109.863 45.1029C112.049 45.1187 114.487 44.9372 116.587 45.632C124.665 48.3043 125.127 58.4495 116.7 62.4262C116.391 66.7602 116.695 71.2415 116.702 75.5959C116.72 86.7323 115.154 94.6409 125.966 102.073C127.858 103.374 129.932 104.398 131.836 105.688C170.908 132.16 165.815 188.863 124.794 210.987C119.886 213.635 119.242 213.515 113.738 213.518L86.5896 213.522C73.7491 213.558 72.0824 214.307 60.6034 206.242C50.0852 198.298 43.9749 192.131 38.6897 179.315C37.5195 176.477 36.3059 173.643 35.841 170.587C25.7173 170.796 14.6083 167.717 5.86637 162.614C2.88731 160.875 0.0511741 159.745 0 155.926C2.79608 149.665 19.2059 141.013 25.3855 139.346C21.921 134.299 13.4773 121.292 15.1476 115.857C16.6645 110.92 31.7201 115.441 35.841 116.625C35.6249 113.976 35.5969 104.52 39.467 104.251C42.6104 104.032 51.3416 109.779 53.7902 111.791C59.1258 106.715 66.0496 103.657 70.2093 99.4836C77.6846 91.9843 76.8507 86.3246 76.8491 76.4939L76.8435 62.4262C68.2229 59.8562 66.9207 44.7736 83.0222 45.1029ZM90.6076 21.8508C87.3026 21.8569 80.7973 21.1295 80.7575 26.0971C80.7402 28.3112 88.0127 42.2633 89.477 45.1029C93.8472 45.2247 98.2327 45.0937 102.605 45.1029C104.917 45.1717 110.925 29.9571 111.962 27.1986C114.384 20.758 105.962 21.8171 102.324 21.837L90.6076 21.8508ZM79.8579 50.6923C75.4796 51.1072 74.9434 56.8184 79.8656 57.2654C83.2847 57.5758 86.9367 57.2675 90.3787 57.2746L114.176 57.2868C118.439 56.638 117.619 52.6139 114.876 50.6923H79.8579ZM91.9975 62.8492H82.3514L82.357 78.4874C82.3565 89.7844 82.7316 94.9702 73.7833 103.848C69.1588 108.436 62.7814 110.495 58.0681 115.552C69.4977 128.441 72.3826 139.375 70.1287 155.926C75.2991 157.117 88.3751 166.008 91.0143 170.338C92.4573 172.705 91.2167 175.393 88.2966 174.708C86.7323 174.341 82.4936 169.789 80.8243 168.468C76.551 165.084 71.3021 161.94 66.2336 159.916C55.7602 167.334 51.9792 167.03 41.3514 170.587C47.345 184.08 48.2589 189.453 61.3532 199.865C70.5151 206.951 72.0554 207.772 82.622 207.741H111.122C117.621 207.742 118.09 208.523 123.735 205.048C158.323 183.75 164.689 137.571 130.83 111.821C128.411 109.981 125.745 108.581 123.244 106.875C111.805 99.0763 111.098 91.2254 111.099 79.0817L111.098 62.8492H91.9975ZM41.3514 111.002C41.6109 114.392 41.2016 117.793 41.4034 121.193C42.0232 131.64 46.8649 140.655 54.7709 147.428C56.1659 148.624 63.1336 153.479 64.7121 153.41C66.0251 141.791 64.8273 132.803 57.3362 123.419C53.6918 118.853 46.9775 112.764 41.3514 111.002ZM21.34 119.779C23.0944 126.556 26.8606 132.196 31.1156 137.638C33.6192 137.232 36.1056 136.904 38.6296 136.665L39.1944 136.62C39.3692 136.173 36.1244 125.687 35.841 123.017C31.1533 120.959 26.5293 119.557 21.34 119.779ZM37.6255 142.724C26.1031 143.724 15.141 148.215 6.89128 156.548C15.6186 162.021 20.4577 162.164 29.2541 164.885C42.4106 165.268 48.0265 163.79 59.6401 157.487C53.6291 154.405 46.5616 148.702 43.2368 142.724C41.3667 142.711 39.4951 142.684 37.6255 142.724Z" fill="white"/>
<path d="M31.5986 79.4484C26.6993 79.3026 25.3027 67.5784 21.5462 64.0243C19.0803 61.6914 6.98132 56.7136 6.20979 54.4979C4.74985 50.3061 17.4599 46.3707 20.6451 44.3023C24.6095 41.7273 26.3201 29.285 31.1154 27.8884C34.0676 27.7161 39.2054 40.9674 40.8935 43.9348C43.3763 45.5511 55.9379 51.35 56.3997 53.004C57.5674 57.1861 45.2398 61.1597 41.759 63.4004C37.7267 65.9963 36.5035 78.2674 31.5986 79.4484ZM31.1154 37.3714C29.834 39.8302 26.9842 46.6154 25.0158 48.1853C22.1171 50.4968 17.5833 51.7894 14.3319 53.9026C26.9001 59.1169 25.314 58.7019 31.1154 70.1728C33.5941 68.2023 34.6033 61.9788 37.1146 59.7428C39.1626 57.919 44.9961 55.3884 47.7312 53.9026C45.6027 53.0381 37.4046 48.7938 36.245 47.2133C34.1354 44.337 33.6456 39.9316 31.1154 37.3714Z" fill="white"/>
<path d="M168.397 108.841C164.513 108.001 164.639 102.406 161.558 99.2119C158.841 96.3958 149.382 94.2524 152.298 90.3058C154.23 87.69 159.797 87.4061 162.348 84.4386C164.593 81.8269 164.964 76.5826 168.397 75.6682C171.634 75.6254 172.227 82.2184 175.402 85.0966C177.289 86.8062 186.707 89.6203 184.466 93.1994C183.135 95.3243 176.77 96.8902 174.114 100.192C171.905 102.937 172.156 107.732 168.397 108.841ZM168.397 85.4794C166.504 88.5178 164.252 90.4256 161.197 92.2371C164.363 93.5567 166.702 95.4696 168.397 98.4733C170.388 95.5639 172.214 93.8503 175.391 92.2371C171.772 89.6646 170.989 88.6926 168.397 85.4794Z" fill="white"/>
<path d="M113.324 185.309C106.77 186.685 106.748 184.798 106.082 178.648C103.624 155.948 117.589 141.283 139.781 138.889C147.846 138.699 147.929 139.144 147.721 147.528C147.106 172.401 136.53 179.45 113.324 185.309ZM140.449 144.69C122.924 145.979 111.134 157.093 111.473 174.91C112.931 172.764 117.877 166.532 118.22 164.523C118.593 162.345 117.519 157.758 118.203 156.242C118.872 154.757 121.488 154.624 122.637 155.537C123.811 156.469 123.69 158.547 123.898 159.916C125.627 157.853 137.754 143.449 137.999 153.41C136.742 155.679 129.848 161.589 127.555 164.312C130.137 163.922 137.308 163.946 133.981 168.406C132.436 170.478 124.523 170.59 121.549 170.838C119.38 173.058 117.445 176.004 116.072 178.786C135.087 172.813 143.29 165.947 142.053 144.69H140.449Z" fill="white"/>
</svg>
