<svg width="194" height="213" viewBox="0 0 194 213" fill="none" xmlns="http://www.w3.org/2000/svg">
<path d="M49.6087 61.4721C52.2026 56.7892 56.4543 52.2112 59.7889 48.0205L91.639 7.36839C93.591 4.85944 95.252 1.41947 98.1879 0.0281792C101.152 -0.352409 102.392 3.2118 103.699 5.30503L121.164 33.3217C123.072 36.3166 135.01 54.0056 134.93 56.1539C134.784 60.0237 134.063 63.9921 133.574 67.8383L124.277 147.256C123.81 151.426 123.269 155.603 123.304 159.805L139.526 115.604C140.418 113.134 141.167 110.513 142.385 108.181C152.318 102.115 163.358 96.3342 173.554 90.3223C175.745 89.0312 178.151 87.3416 180.579 86.6045C184.434 87.6158 184.164 92.2976 184.848 95.6474C185.534 99.0093 186.282 102.353 187.012 105.705L191.638 126.459C194.522 139.205 195.891 134.985 188.996 144.809L177.101 161.74C167.946 174.749 158.969 187.883 149.681 200.798C140.936 212.957 144.907 210.407 129.843 204.204C125.706 202.501 121.443 201.112 117.326 199.376C113.813 201.807 110.184 204.089 106.63 206.462C95.8561 213.459 99.6471 214.697 88.1894 209.217C83.2123 206.836 78.2435 204.42 73.2359 202.104C70.0799 203.419 52.3544 213.458 50.6089 212.984C48.6915 211.12 45.2267 204.415 43.5011 201.567L5.98647 139.472C-2.57918 125.235 -0.618149 130.28 3.6154 112.458L7.47326 95.6831C8.05602 93.2014 8.64982 90.7218 9.18693 88.2296C11.1816 78.976 11.9175 79.1443 18.952 83.6736L40.1539 97.6835C47.4834 102.554 48.0885 100.79 50.809 108.732L53.8982 117.806C56.1155 124.266 58.5697 130.62 60.8715 137.046C60.5816 134.666 60.1214 132.31 59.7705 129.939L53.3582 87.2934C52.0581 78.7013 50.6635 70.0972 49.6087 61.4721ZM81.9321 29.7413C76.2211 35.091 65.0592 50.7433 60.259 57.2233C63.3351 56.5821 66.604 55.9221 69.5872 54.9481C71.4835 51.396 81.1773 33.2069 81.9321 29.7413ZM99.0063 9.15023C92.0834 22.0111 86.1928 35.4061 79.6602 48.464C78.2188 51.3457 76.5368 54.1655 75.4962 57.2233C78.4862 59.3343 81.1899 62.2815 83.8384 64.8104L98.1879 78.5372C99.3582 77.7519 100.465 76.9001 101.576 76.0351C110.476 69.152 119.296 62.087 127.992 54.9481C124.778 50.4456 122.012 45.6463 119.067 40.9691L102.152 13.9836C101.15 12.391 100.169 10.6228 99.0063 9.15023ZM68.5067 61.4721C64.3174 62.367 59.9375 63.3258 55.9122 64.7926C58.8239 82.1575 61.3044 99.825 63.8904 117.258C66.2537 133.188 75.1674 196.275 75.4962 196.561C78.4006 197.777 81.1946 199.182 84.0296 200.547C83.7444 194.595 82.999 188.654 82.3597 182.733L70.4949 75.8815L69.2668 65.905C69.0924 64.509 69.0918 62.9033 68.6826 61.5675L68.5067 61.4721ZM127.992 62.877C118.53 69.5871 110.224 77.2838 101.119 84.125C101.532 94.2808 101.153 104.512 101.108 114.679L100.777 170.233C100.731 175.051 99.6886 200.982 100.785 203.545C102.971 201.621 109.658 196.796 112.393 196.052L126.798 74.7214C127.09 72.5008 128.309 64.7941 128.129 63.0139L127.992 62.877ZM74.91 64.7926C78.6643 93.4709 81.5786 122.225 84.8459 150.957L89.6923 195.438C89.9707 198.13 90.3279 200.84 90.4298 203.545C91.2976 203.896 93.5894 205.168 94.4168 204.847L94.5623 204.321L95.2205 97.8508C95.2336 93.3167 95.4957 88.6322 95.0776 84.125C92.4075 80.708 76.4386 65.5496 74.91 64.7926ZM19.2178 91.181C20.1707 99.3794 21.568 107.61 21.9157 115.862C26.2021 113.782 30.3504 111.312 34.5533 109.062C36.7873 107.906 38.992 106.695 41.1509 105.404C34.8254 101.411 25.5902 94.2724 19.2178 91.181ZM13.5443 95.3193C11.9455 102.706 7.86697 116.802 7.47746 123.597C8.22427 123.258 8.96646 122.925 9.68112 122.522C11.9298 121.355 14.3128 120.226 16.4117 118.803C16.1496 116.16 14.1166 95.9803 13.5443 95.3193ZM173.268 97.4571C165.325 102.303 155.99 106.945 148.443 112.115L155.005 128.056C155.824 130.041 156.609 132.05 157.497 134.005L171.782 101.71C172.117 100.955 173.906 97.5373 173.268 97.4571ZM179.329 99.5555C174.002 112.483 167.39 124.933 162.495 138.03C165.013 137.721 167.529 137.318 170.048 137.046C175.807 136.113 181.631 135.554 187.393 134.604C184.712 123.243 182.637 110.654 179.329 99.5555ZM44.7524 110.408C37.7854 114.046 30.5852 117.663 23.8609 121.737C25.3617 124.947 27.2286 128.015 28.8901 131.147L53.2479 177.014C55.1957 180.747 56.9444 184.997 59.5536 188.303C60.6425 191.582 63.2753 196.281 64.9709 199.376C66.4985 198.672 68.0192 197.957 69.5872 197.345C68.6159 194.581 68.3291 191.672 67.9073 188.787L66.0677 175.517C65.7216 172.883 65.5009 170.146 64.9341 167.55C64.0963 163.711 44.9609 110.627 44.7524 110.408ZM144.762 118.803L122.785 177.417C120.207 184.436 119.455 186.047 118.62 193.518C120.821 194.353 123.056 195.141 125.227 196.052L126.271 194.04C134.527 176.672 144.63 158.036 153.796 141.117C152.87 138.618 145.37 119.179 144.762 118.803ZM18.2602 124.645C14.6742 126.56 11.1013 128.513 7.47746 130.356C11.6893 137.939 16.4443 145.312 20.9639 152.724L46.6592 195.218C48.3196 197.975 50.0384 200.683 51.516 203.545C52.0482 204.192 52.4616 204.846 52.8708 205.576C55.0828 204.379 57.2906 203.203 59.5536 202.104C58.4546 199.465 57.0447 196.941 55.7289 194.402L47.9188 179.64C44.7187 173.56 19.6291 125.269 18.2602 124.645ZM183.781 141.117L165.956 143.636C163.543 143.98 161.102 144.479 158.682 144.718C152.432 157.525 145.171 170.675 138.436 183.343C135.872 188.165 133.044 192.971 130.711 197.903C131.856 198.383 133.009 198.846 134.131 199.376C136.529 200.4 138.911 201.448 141.287 202.523L175.374 153.787C176.663 151.931 183.601 142.558 183.991 141.203L183.781 141.117Z" fill="white"/>
</svg>
