<svg width="1920" height="938" viewBox="0 0 1920 938" fill="none" xmlns="http://www.w3.org/2000/svg">
<path d="M254.852 29.9645C242.707 29.3052 230.146 37.2062 227.235 49.11C227.913 36.8737 218.197 25.6574 206.386 22.7516C218.532 23.4066 231.092 15.5099 234.003 3.60611C233.321 15.8417 243.042 27.0543 254.848 29.9638L254.852 29.9645Z" fill="black"/>
<path d="M987.995 323.634C975.832 323.593 963.689 332.122 961.387 344.159C961.441 331.904 951.168 321.196 939.225 318.894C951.388 318.931 963.531 310.406 965.832 298.369C965.774 310.624 976.052 321.328 987.991 323.633L987.995 323.634Z" fill="black"/>
<path d="M1705.1 502.129C1694.43 507.959 1687.9 521.287 1691.69 532.941C1685.83 522.18 1671.66 517.754 1660.09 521.497C1670.77 515.664 1677.29 502.339 1673.5 490.685C1679.36 501.449 1693.53 505.868 1705.1 502.131L1705.1 502.129Z" fill="black"/>
<path d="M1705.1 502.129C1694.43 507.959 1687.9 521.287 1691.69 532.941C1685.83 522.18 1671.66 517.754 1660.09 521.497C1670.77 515.664 1677.29 502.339 1673.5 490.685C1679.36 501.449 1693.53 505.868 1705.1 502.131L1705.1 502.129Z" fill="black"/>
<path d="M1904.07 917.236C1892.83 912.581 1878.36 915.861 1871.66 926.122C1876.36 914.806 1870.93 900.999 1860.75 894.335C1871.99 898.987 1886.46 895.711 1893.16 885.45C1888.45 896.764 1893.9 910.569 1904.07 917.234L1904.07 917.236Z" fill="black"/>
<path d="M-4.5 27.3666C126 1.03325 417.093 13.0354 658 205.867C898.907 398.698 1165.5 288.549 1388.5 325.867C1881.5 408.367 1574 774.367 1922 925.867" stroke="black" stroke-dasharray="23 23"/>
</svg>
