<svg width="1920" height="340" viewBox="0 0 1920 340" fill="none" xmlns="http://www.w3.org/2000/svg">
<path d="M341.855 184.159C329.694 183.975 317.451 192.361 315.008 204.369C315.206 192.116 305.059 181.288 293.144 178.846C305.306 179.026 317.548 170.644 319.991 158.636C319.789 170.889 329.941 181.713 341.851 184.158L341.855 184.159Z" fill="black"/>
<path d="M1132.33 22.9813C1120.28 24.6309 1109.44 34.7649 1108.83 47.0045C1107.18 34.861 1095.52 25.6847 1083.37 25.065C1095.42 23.4111 1106.26 13.2814 1106.87 1.04188C1108.51 13.1856 1120.18 22.3573 1132.32 22.9815L1132.33 22.9813Z" fill="black"/>
<path d="M1758.09 242.431C1748.14 235.432 1733.3 235.47 1724.52 244.019C1731.58 234.004 1729.29 219.342 1720.82 210.616C1730.77 217.611 1745.61 217.576 1754.39 209.028C1747.32 219.04 1749.62 233.701 1758.08 242.428L1758.09 242.431Z" fill="black"/>
<path d="M-48 259.144C-8.66667 222.144 109.4 153.344 267 174.144C464 200.144 617.5 206.644 843.5 89.6443C1069.5 -27.3557 1499 5.14435 1705 196.144C1869.8 348.944 2013.67 349.478 2065 330.644" stroke="black" stroke-dasharray="23 23"/>
</svg>
