<svg width="214" height="81" viewBox="0 0 214 81" fill="none" xmlns="http://www.w3.org/2000/svg">
<path d="M24.5706 0.162933C23.4452 0.368301 21.9694 1.01863 21.1761 1.66896C20.3459 2.33641 19.4789 3.91089 19.1837 5.22867C18.8701 6.6149 19.0361 12.0571 19.442 13.4091C19.8478 14.8296 21.0101 16.9689 22.0801 18.2866C22.5782 18.9027 23.9802 20.6312 25.2163 22.1544C28.5923 26.296 28.9612 27.1345 28.9612 30.506C28.9612 32.4399 28.7398 33.4154 28.168 33.9801C27.3378 34.8358 25.7697 34.5791 25.1425 33.4667C24.8657 33.0046 24.8104 32.303 24.755 28.8459L24.6813 24.7899H21.6373H18.6118L18.6672 29.9584C18.7225 34.8701 18.7594 35.1952 19.1468 36.1023C19.977 38.019 21.2499 39.1657 23.2607 39.7989C24.054 40.0385 24.8104 40.1069 26.9319 40.1069C29.2564 40.0898 29.736 40.0385 30.64 39.7133C32.0974 39.1828 33.0014 38.5153 33.8131 37.4372C35.252 35.5033 35.6948 33.3811 35.5472 29.2396C35.3812 24.5332 34.8831 23.4722 30.0866 17.5507C28.2786 15.3259 26.5814 13.1182 26.3231 12.6732C25.6221 11.4924 25.2716 10.0377 25.2716 8.42898C25.2716 6.18705 25.7881 5.28001 27.0611 5.28001C28.7214 5.28001 28.9612 5.86189 28.9612 10.0719V13.3236L31.9683 13.2893L34.9569 13.238L35.0122 9.98635C35.0676 6.28973 34.8646 4.25317 34.3112 3.08942C33.5548 1.49783 32.0052 0.470985 29.8652 0.145821C28.4816 -0.0595474 25.7144 -0.0424309 24.5706 0.162933Z" fill="black"/>
<path d="M0 20.082V39.8486H3.04394H6.08789L6.12478 31.1547L6.18013 22.478H8.30166H10.4232L10.4785 31.1718L10.5154 39.8486L13.6147 39.8144L16.6956 39.7631L16.7509 20.0307L16.7878 0.315361H13.6516H10.5154L10.4785 8.22202L10.4232 16.1458H8.30166H6.18013L6.12478 8.22202L6.08789 0.315361H3.04394H0V20.082Z" fill="black"/>
<path d="M37.4492 20.0845V39.834L44.6993 39.7998L51.931 39.7655L51.9864 36.8048L52.0233 33.8612H47.8724H43.7216V28.128V22.3949H46.8578H49.994V19.3999V16.405H46.8578H43.7216V11.2708V6.13659H47.6879H51.6543V3.22721V0.317837H44.5518H37.4492V20.0845Z" fill="black"/>
<path d="M63.0216 0.863007C62.9294 1.32508 60.6603 19.038 59.9408 24.7028C59.8486 25.4558 59.4427 28.6561 59.0368 31.8051C58.6125 34.954 58.2251 38.0517 58.1698 38.6849L58.0591 39.8486H60.6234C62.0254 39.8486 63.2799 39.7802 63.409 39.7117C63.5197 39.6433 63.778 38.1201 64.0363 35.9466L64.4421 32.3185H66.6928H68.9619L69.0542 32.8661C69.128 33.1742 69.294 34.6973 69.46 36.2547C69.6261 37.8121 69.7921 39.2496 69.8474 39.455C69.9212 39.8144 69.995 39.8315 72.8729 39.8315C75.7509 39.8486 75.8246 39.8486 75.8246 39.5064C75.8246 39.301 75.5664 37.3158 75.2712 35.0909C74.3672 28.5534 72.3933 14.075 71.4893 7.50323C71.0466 4.166 70.6223 1.17106 70.5669 0.863007L70.4562 0.315361H66.7851H63.1139L63.0216 0.863007ZM67.3385 17.5149C67.6521 20.236 67.9842 23.1283 68.0764 23.9326C68.1687 24.737 68.2609 25.644 68.2609 25.935V26.4997H66.6928C65.2354 26.4997 65.1247 26.4826 65.1247 26.1575C65.1247 25.9521 65.4568 22.8202 65.8626 19.1921C66.2685 15.5468 66.6006 12.4834 66.619 12.3807C66.6559 11.8331 66.822 13.0482 67.3385 17.5149Z" fill="black"/>
<path d="M76.9253 20.0836V39.8502H80.0615H83.1977V31.0365V22.2228H84.489C85.9649 22.2228 86.7582 22.5137 86.9795 23.1127C87.0718 23.3352 87.1825 27.0147 87.2378 31.2932C87.33 37.2318 87.4038 39.1656 87.5883 39.4737C87.8281 39.8502 87.8835 39.8673 90.8536 39.8502C92.514 39.8331 93.916 39.7817 93.9529 39.7304C94.0083 39.6962 93.916 39.371 93.75 39.0287C93.4733 38.4811 93.4179 37.3173 93.3441 29.753C93.2703 23.1983 93.1966 20.9906 93.0121 20.597C92.7169 19.9809 91.979 19.2108 91.2779 18.8L90.7614 18.5091L91.5178 17.9443C91.979 17.602 92.4771 17.003 92.7722 16.4212L93.2519 15.4628L93.3072 10.2944C93.3626 6.03299 93.3257 4.9377 93.0859 4.082C92.514 2.01121 91.1119 0.864574 88.7321 0.505184C88.068 0.4025 85.1532 0.316929 82.2384 0.316929H76.9253V20.0836ZM86.2969 5.94743C87.0349 6.32393 87.164 7.04272 87.164 11.0987C87.164 14.436 87.1271 15.0178 86.8504 15.497C86.3338 16.3527 85.8542 16.5752 84.4521 16.5752H83.1977V11.2185C83.1977 8.25781 83.253 5.7934 83.3452 5.72495C83.5113 5.53669 85.8542 5.72495 86.2969 5.94743Z" fill="black"/>
<path d="M94.5305 0.537476C94.4936 0.657272 94.4751 1.94082 94.4936 3.39551L94.5489 6.04817L97.1685 6.09951L99.8066 6.15086L99.8435 22.9568L99.8989 39.7627H102.943H105.987L106.042 22.9397L106.079 6.13374H108.662H111.244V3.22437V0.314995H102.943C96.3199 0.314995 94.6043 0.366337 94.5305 0.537476Z" fill="black"/>
<path d="M122.238 0.950016C122.182 1.30941 121.961 2.90101 121.758 4.50972C121.168 9.11338 119.987 18.372 119.175 24.6186C118.77 27.7676 118.308 31.3958 118.161 32.6622C117.995 33.9286 117.755 35.8454 117.607 36.9065C117.46 37.9675 117.331 39.0628 117.331 39.3195V39.8158L120.042 39.7816L122.754 39.7645L122.883 39.0799C122.957 38.7034 123.142 37.0263 123.326 35.3491L123.658 32.3199H125.927H128.197L128.307 32.8676C128.344 33.1756 128.529 34.6645 128.676 36.1706C128.842 37.6766 129.008 39.1142 129.064 39.3709L129.156 39.8158L132.108 39.833L135.041 39.8672V39.4736C135.041 39.2511 134.543 35.4518 133.934 31.0364C133.325 26.6039 132.163 18.0982 131.351 12.1254C130.539 6.15266 129.82 1.0527 129.765 0.778873L129.654 0.316795H126.001H122.348L122.238 0.950016ZM126.739 19.0395C127.145 22.5992 127.477 25.7482 127.477 26.0049V26.5012H125.891H124.286L124.415 25.2519C124.488 24.5844 124.839 21.4526 125.189 18.3207C125.54 15.1888 125.817 12.5191 125.835 12.4164C125.872 11.8003 126.057 13.1694 126.739 19.0395Z" fill="black"/>
<path d="M136.187 20.0307L136.243 39.7631H139.01H141.777L141.869 28.6561L141.962 17.532L143.142 21.9816C143.788 24.4118 145.098 29.3749 146.057 33.003C147.016 36.6141 147.883 39.6433 148.013 39.7117C148.142 39.7802 149.285 39.8486 150.595 39.8486H152.938V20.082V0.315361H150.079H147.219L147.201 10.7035L147.182 21.1088L146.278 17.686C145.393 14.3659 144.507 10.9089 142.681 3.77238L141.796 0.315361H138.973H136.15L136.187 20.0307Z" fill="black"/>
<path d="M155.334 20.0649V39.8486H159.817C162.27 39.8486 165.019 39.7631 165.923 39.6775C168.893 39.3523 170.517 38.1886 171.421 35.7413L171.845 34.6289L171.9 20.3901C171.937 7.99954 171.919 5.99721 171.661 5.0046C171.273 3.46434 170.554 2.28347 169.558 1.5818C168.063 0.520737 167.51 0.435165 161.108 0.349598L155.334 0.281143V20.0649ZM164.189 5.84318C164.632 5.98009 164.945 6.2368 165.148 6.64754C165.462 7.19518 165.48 8.18779 165.48 19.8253C165.48 31.4628 165.462 32.4554 165.148 33.003C164.743 33.7732 164.171 34.0299 162.769 34.0299H161.606V19.8253V5.6207L162.584 5.63781C163.101 5.63781 163.839 5.72338 164.189 5.84318Z" fill="black"/>
<path d="M40.2889 40.6041C38.8499 40.9121 38.1673 41.2373 37.1342 42.1272C35.4185 43.599 34.9573 45.1393 34.9758 49.2637C35.0127 54.2781 35.6215 55.6815 39.9937 61.0724C44.8087 66.9767 44.8271 66.9938 44.8455 70.776C44.8455 73.7538 44.6426 74.3528 43.425 74.7464C42.5395 75.0374 41.8754 74.8149 41.2482 74.0276C40.8792 73.5656 40.8607 73.2917 40.8054 69.3555L40.7501 65.1797L37.6692 65.214L34.5884 65.2653V70.0572C34.5884 74.5411 34.6253 74.9347 35.0127 76.0813C35.6768 78.0837 37.2265 79.6068 39.1635 80.1716C40.4549 80.5481 43.794 80.685 45.2514 80.4112C47.539 80.0004 49.3838 78.7682 50.3615 77.0055C51.2471 75.3796 51.5238 73.8736 51.5053 70.5706C51.5053 65.2482 51.0072 64.0502 46.5612 58.5566C41.4695 52.2929 41.2297 51.8137 41.3588 48.408C41.4142 46.5597 41.4326 46.4742 41.9307 46.0805C42.7794 45.4131 43.794 45.5329 44.6795 46.4057C44.698 46.4228 44.7533 48.0486 44.8087 50.0339L44.9193 53.6278L47.9264 53.6791L50.9519 53.7305L50.8781 49.1439L50.8227 44.5574L50.214 43.4108C49.0702 41.2373 47.5574 40.5356 43.8125 40.4329C42.189 40.3816 41.0452 40.45 40.2889 40.6041Z" fill="black"/>
<path d="M67.5212 40.5865C64.7171 41.2026 63.149 42.6915 62.2266 45.5838C61.9314 46.525 61.8945 47.8257 61.8392 60.2162C61.7838 74.3181 61.8207 75.2594 62.5586 77.0564C63.0383 78.2715 64.385 79.6577 65.5841 80.1711C66.9493 80.7701 69.1077 80.753 70.436 80.1369C71.506 79.6406 72.8712 78.3228 73.5168 77.1762C74.0149 76.2691 73.9965 76.252 74.6053 78.4939L75.0111 79.9829L76.8006 80.0342L78.5901 80.0855V68.1742V56.28H74.1625H69.735L69.7719 59.2236L69.8272 62.1843L71.2662 62.2357L72.6867 62.287V67.3699C72.6867 70.3135 72.6129 72.7265 72.5022 73.0859C72.1148 74.3695 70.3253 75.0369 69.2 74.3181C68.2407 73.6849 68.2591 73.8389 68.2591 60.3018C68.2591 46.2512 68.2222 46.7304 69.4767 46.2512C70.3069 45.9261 71.0263 46.063 71.5982 46.6277C72.0225 47.0556 72.041 47.1754 72.0963 50.1361L72.1517 53.1995H75.2141H78.258L78.1842 49.2975C78.1104 45.9603 78.0551 45.2757 77.723 44.4371C76.9851 42.469 75.7675 41.3053 73.9043 40.7748C72.6498 40.4154 68.8495 40.2956 67.5212 40.5865Z" fill="black"/>
<path d="M111.428 40.4672C109.86 40.7411 108.532 41.34 107.628 42.1615C105.949 43.7189 105.451 45.3276 105.469 49.1782C105.506 54.1926 106.17 55.7158 110.838 61.449C114.251 65.6419 114.97 66.7714 115.284 68.3459C115.745 70.6905 115.431 73.6854 114.657 74.4213C114.029 75.0032 112.738 75.0032 112.074 74.4213C111.41 73.8395 111.244 72.7271 111.244 68.7737V65.1798H108.2H105.156V69.8861C105.156 74.969 105.266 75.8247 106.097 77.3478C107.37 79.7096 109.971 80.7364 114.177 80.531C120.062 80.2743 122.405 76.9713 122.073 69.4583C121.851 64.752 121.482 63.9989 116.022 57.2218C112.443 52.7722 112 51.9678 111.852 49.7088C111.65 46.7481 112.129 45.6699 113.587 45.6699C114.509 45.6699 115.062 46.0464 115.302 46.8336C115.394 47.1759 115.487 48.8702 115.487 50.5987V53.7134L118.494 53.6792L121.482 53.6279V49.6061C121.464 44.3179 121.169 43.1712 119.472 41.785C118.291 40.8266 116.999 40.5015 114.195 40.433C112.922 40.4159 111.686 40.433 111.428 40.4672Z" fill="black"/>
<path d="M129.317 40.551C126.513 41.0644 124.575 43.0668 123.948 46.0788C123.856 46.5409 123.782 52.8217 123.782 60.5573C123.782 73.4954 123.801 74.2655 124.133 75.4977C124.575 77.1065 124.889 77.6712 125.867 78.6467C127.38 80.1699 129.151 80.6662 132.748 80.5464C134.87 80.4779 135.257 80.4266 136.29 79.9816C137.046 79.6736 137.711 79.2286 138.209 78.7152C139.113 77.7568 139.389 77.2605 139.887 75.8058C140.22 74.779 140.275 74.0944 140.33 68.8062L140.422 62.9532L137.305 62.9874L134.205 63.0388L134.113 68.3441C134.021 73.8548 133.966 74.1971 133.191 74.5907C132.6 74.8816 131.438 74.7961 130.922 74.4196C130.073 73.8035 130.036 73.2045 130.091 59.7529C130.147 47.3453 130.147 47.2255 130.534 46.7463C131.088 46.0788 132.065 45.8906 132.951 46.3013C134.058 46.7976 134.113 47.003 134.113 51.5211V55.5942H137.249H140.386V51.3499C140.367 46.8661 140.183 45.1547 139.5 43.7513C138.688 42.0228 136.973 40.8933 134.648 40.551C133.265 40.3285 130.497 40.3457 129.317 40.551Z" fill="black"/>
<path d="M167.175 40.6217C164.444 41.1864 162.71 42.8465 161.843 45.6703C161.53 46.7142 161.511 47.7068 161.511 60.3883C161.511 72.8815 161.53 74.0795 161.843 75.1063C162.71 78.1013 164.278 79.6586 167.046 80.3432C168.263 80.6512 171.934 80.6512 173.189 80.3432C175.716 79.71 177.229 78.2039 178.188 75.363C178.613 74.0795 178.723 48.5968 178.317 46.4062C177.782 43.5481 176.325 41.717 173.945 40.8955C172.433 40.3821 168.964 40.2452 167.175 40.6217ZM170.754 46.1837C171.529 46.4404 171.934 47.0736 172.137 48.2887C172.359 49.7263 172.34 71.4953 172.119 72.7788C171.879 74.1822 171.27 74.764 170.071 74.764C169.02 74.764 168.337 74.3191 168.06 73.4291C167.913 73.0013 167.876 68.757 167.913 60.0118L167.968 47.2276L168.503 46.7142C168.964 46.2522 169.278 46.1152 170.016 46.0297C170.127 46.0297 170.459 46.0981 170.754 46.1837Z" fill="black"/>
<path d="M186.364 40.6217C183.634 41.1693 181.974 42.778 181.033 45.7559C180.738 46.68 180.701 47.9978 180.645 59.5326C180.609 68.1238 180.664 72.7446 180.793 73.703C181.31 77.3654 183.118 79.5731 186.235 80.3432C187.434 80.6512 191.124 80.6512 192.323 80.3432C195.017 79.6757 196.622 78.0328 197.415 75.1063C197.618 74.3362 197.673 71.5808 197.673 60.3027C197.673 45.1055 197.71 45.7216 196.566 43.6166C196.105 42.7609 194.832 41.58 193.891 41.1351C192.379 40.3992 188.689 40.1596 186.364 40.6217ZM190.128 46.2693C191.438 46.7827 191.401 46.3035 191.401 60.2172C191.401 67.0456 191.345 72.8986 191.253 73.2409C191.032 74.2164 190.331 74.764 189.279 74.764C188.209 74.764 187.527 74.3191 187.25 73.4291C187.139 73.0184 187.065 68.3463 187.065 60.337C187.065 47.1421 187.065 47.1934 187.914 46.5089C188.246 46.235 188.689 46.081 189.242 46.0297C189.371 46.0297 189.759 46.1324 190.128 46.2693Z" fill="black"/>
<path d="M0 60.4219V80.1543L5.9403 80.0687L11.8991 79.9832L12.9506 79.504C14.242 78.9221 15.3489 77.7755 15.847 76.5604C16.5664 74.7805 16.6218 73.3772 16.5664 59.3608C16.4926 47.8431 16.4557 45.8066 16.2159 45.0707C15.5149 43.017 14.4818 41.8875 12.6185 41.2029C11.5854 40.8264 11.2718 40.8093 5.77427 40.7408L0 40.6724V60.4219ZM8.67063 46.1831C9.09494 46.2858 9.44545 46.5425 9.68528 46.9019C10.0358 47.4495 10.0542 47.826 10.0542 60.131C10.0542 73.9248 10.0727 73.6681 9.02114 74.1644C8.72597 74.3184 7.98805 74.4211 7.28702 74.4211H6.08789V60.3363C6.08789 52.5837 6.14323 46.1831 6.21702 46.1317C6.40151 45.9606 7.9327 45.9948 8.67063 46.1831Z" fill="black"/>
<path d="M18.8174 60.3877V80.0687L26.1044 80.103L33.3914 80.1543V77.2107V74.25L29.2959 74.2157L25.182 74.1644L25.1266 68.4655L25.0898 62.7836H28.2259H31.3621V59.7887V56.7937H28.2259H25.0898V51.6595V46.5253H29.0561H33.0225V43.616V40.7066H25.9199H18.8174V60.3877Z" fill="black"/>
<path d="M53.3154 60.3877V80.0516L56.4516 80.103L59.5878 80.1543V60.4219V40.7066H56.4516H53.3154V60.3877Z" fill="black"/>
<path d="M80.8047 60.3888V80.0698H83.6273H86.4314L86.3945 68.9115C86.376 61.8263 86.4314 57.8559 86.5421 58.0784C86.6896 58.3693 90.656 73.1729 91.7075 77.3316C91.9105 78.1359 92.1503 79.0772 92.261 79.4195L92.4455 80.0698H95.0098H97.5925V60.3888V40.7077H94.733H91.8736L91.8367 51.1814L91.7813 61.6552L90.4162 56.367C89.6782 53.4405 88.682 49.5898 88.2393 47.81C87.7781 46.013 87.1877 43.7026 86.911 42.6758L86.4129 40.7933L83.6088 40.7419L80.8047 40.6906V60.3888Z" fill="black"/>
<path d="M142.417 60.3888V80.0698H145.554H148.69V71.4273V62.7847H150.811H152.933V71.4273V80.0698H156.069H159.205V60.3888V40.7077H156.069H152.933V48.6657V56.6237H150.811H148.69V48.6657V40.7077H145.554H142.417V60.3888Z" fill="black"/>
<path d="M199.979 60.3888V80.0698H206.99H214V77.0749V74.0799H210.126H206.252V57.3938V40.7077H203.116H199.979V60.3888Z" fill="black"/>
</svg>
