<svg width="166" height="173" viewBox="0 0 166 173" fill="none" xmlns="http://www.w3.org/2000/svg">
<path d="M65.3906 25.3893C65.1434 23.6161 64.5217 21.9779 63.9581 20.2884L61.3428 12.4081C59.5976 7.13475 57.9636 1.28943 65.3906 0.00839766C68.1445 -0.20899 76.0525 3.85625 79.1561 5.00443C82.5808 3.89938 88.0948 0.708007 91.2638 0.218022C95.1721 -0.385833 98.6749 2.80468 98.3278 6.72456C97.9717 10.7385 93.6587 20.9785 92.2826 25.3893C100.969 26.9632 102.651 36.6654 94.8923 41.2948C94.8936 44.2848 94.5379 55.4431 95.2664 57.5859C96.1685 60.2395 98.708 60.7803 101.04 61.6835C150.785 80.9409 150.648 154.237 98.6137 172.242C95.3818 173.36 91.7908 172.913 88.4302 172.906L66.3185 172.914C58.637 172.922 57.5765 171.548 50.4398 168.095C41.1747 162.744 28.5692 151.786 25.3795 141.122C23.1164 142.694 17.1366 149.357 15.3165 149.401C13.999 149.433 12.812 148.29 12.8639 146.951C12.9419 144.94 21.9388 137.452 23.7424 135.739C23.7381 133.766 24.0731 131.801 24.5799 129.9C6.56785 123.813 -3.91909 105.216 1.37284 86.3596C2.72424 81.5443 3.84115 81.2532 8.57712 83.1601C14.68 85.6173 20.1381 89.576 24.5799 94.4142C31.2288 79.885 40.7471 68.8056 55.8267 62.29C63.5929 58.9343 63.3238 59.7512 63.3208 50.6921L63.3092 41.2948C56.1341 36.8004 56.963 27.9548 65.3906 25.3893ZM65.3906 5.00443C65.0126 5.19594 64.6797 5.3206 64.4601 5.69758C64.1703 7.17357 69.8776 23.0502 70.7469 25.3893H87.2974C88.2584 22.8427 88.9271 20.1728 90.2425 17.779C90.6511 15.1052 94.1198 6.96696 93.6126 5.37451C91.2905 3.03026 82.7036 9.83959 79.0605 9.70458C75.2443 9.56311 68.3926 4.37686 65.3906 5.00443ZM66.2578 29.995C61.8181 31.2958 62.2939 36.7819 67.2055 37.1226C71.1448 37.3956 75.2749 37.136 79.2314 37.1416L87.8171 37.158C89.2957 37.1614 90.8083 37.2356 92.2826 37.1481C96.1965 35.6315 96.1508 30.287 91.4175 30.0144C83.7865 29.5753 73.9315 29.8017 66.2578 29.995ZM67.9542 41.9069L67.9646 50.8241C67.9805 62.8852 66.7202 62.6432 57.3733 66.9172C50.7347 69.9529 43.2832 74.8601 38.7591 80.6713C54.9513 81.5094 68.9355 89.5976 82.4814 97.7332C87.7094 100.874 92.7837 104.238 98.8062 105.63C110.105 107.505 118.898 97.6452 127.419 91.3501C121.536 81.0957 113.92 73.3021 103.346 67.8881C92.1921 62.1774 90.2373 65.6155 90.2287 49.5935C90.227 47.047 90.1086 44.4478 90.2425 41.9069H67.9542ZM34.9089 85.2887C31.578 89.9819 30.1524 95.1707 27.5177 98.978C32.8241 105.143 32.1791 112.46 32.2428 119.858C40.757 108.969 54.6917 107.301 67.2429 110.528C68.7796 110.924 71.5314 111.336 71.7498 113.338C72.027 115.879 68.4537 122.445 67.0388 124.683C57.9662 139.03 44.8819 141.486 29.516 138.936C33.6215 149.849 45.4408 160.699 55.7457 165.38C62.7133 168.545 62.374 168.103 69.9487 168.098L86.819 168.095C92.5129 168.119 94.7906 168.698 100.085 166.505C126.905 155.392 141.587 122.139 129.445 95.7375C107.934 111.794 105.509 117.065 79.6723 101.54C67.1168 93.9949 50.1887 84.3242 34.9089 85.2887ZM6.06313 87.4513C1.53684 101.186 8.5146 117.782 21.965 123.275C21.2111 121.403 20.2328 119.603 19.3196 117.804L15.1432 109.66C13.9977 107.464 9.97094 102.001 15.1577 101.705C17.9465 102.538 25.3437 118.885 26.2372 121.525C31.8458 107.539 19.1801 91.134 6.06313 87.4513ZM55.825 113.67C44.9431 114.184 35.9617 120.287 31.1104 129.9C34.5421 126.686 50.1633 117.796 52.9599 120.848C56.5686 124.787 47.945 125.962 45.9316 126.846C41.3473 128.834 36.5903 131.377 32.8405 134.718C49.319 136.889 60.2112 130.437 66.2578 115.22C62.8752 114.187 59.3755 113.556 55.825 113.67Z" fill="white"/>
<path d="M26.9117 63.9887C23.8218 64.174 23.8663 62.0577 22.7771 59.8392C21.185 56.5977 18.7114 53.8457 15.7122 51.8025C11.3693 48.8437 8.17037 48.4596 14.783 44.5322C22.8756 39.726 22.6606 32.8082 25.2944 31.0354C28.3822 30.6792 28.3226 33.0724 29.1759 35.317C32.3751 43.7328 38.9242 44.0227 40.7673 47.0993C42.0647 49.2649 37.5728 51.0465 36.2613 51.9519C30.6802 55.8029 28.7056 63.0314 26.9117 63.9887ZM26.1476 39.9586C23.8201 43.1794 21.5769 45.6866 18.1867 47.8919C21.5371 50.1893 23.9717 52.7766 26.1476 56.1718C28.1153 52.9741 30.6523 50.0289 33.7975 47.8919C28.9236 44.8314 28.5334 41.9824 26.1476 39.9586Z" fill="white"/>
<path d="M147.422 78.9608C143.823 79.3962 143.653 76.1184 142.493 73.4067C140.362 68.4262 136.83 64.1678 132.436 61.0828C127.069 57.3149 123.88 57.6994 131.613 52.8949C135.806 50.2891 140.325 46.2446 142.433 41.6305C143.454 39.3955 143.42 35.3751 145.592 34.0379C148.927 33.6189 148.701 36.7596 149.492 39.1408C151.463 45.0704 156.395 49.799 161.529 53.038C167.637 56.8903 167.403 57.0244 161.339 60.9448C156.442 64.1101 152.525 68.5172 150.254 73.9912C149.499 75.8119 149.157 77.8771 147.422 78.9608ZM146.597 43.7884C142.248 50.4848 140.636 52.166 134.227 56.8662C138.222 58.8314 141.49 62.5859 143.93 66.2886C144.29 66.8365 146.375 70.5207 146.53 70.5751L146.597 70.5091C150.044 64.6002 153.223 60.5754 159.005 56.8662C154.168 53.4203 149.361 49.6158 146.756 44.0375C146.672 43.8591 146.719 43.9328 146.597 43.7884Z" fill="white"/>
</svg>
