<svg width="190" height="214" viewBox="0 0 190 214" fill="none" xmlns="http://www.w3.org/2000/svg">
<path d="M88.3278 213.201C85.4604 213.931 81.553 210.972 79.151 209.646C25.2693 179.909 3.9142 121.209 0.257332 62.87C-0.831583 45.4957 0.99961 44.928 16.3216 44.9923C42.6289 45.1031 61.7951 34.255 76.7693 11.9922C79.8192 7.45867 81.1347 1.39295 86.4752 0.0239703C92.4838 -0.465429 94.4791 6.65515 97.0936 10.7724C110.655 32.1317 132.343 45.5226 158.1 45.4363C161.584 45.424 166.318 44.3314 169.513 45.6966C176.489 48.6779 174.353 58.0752 173.989 63.9987C170.601 119.229 150.239 175.802 101.118 206.282C97.1065 208.771 92.7815 211.597 88.3278 213.201ZM87.4098 7.1266C85.8989 9.21 84.6446 11.464 83.2758 13.6403C67.0738 39.3995 45.1527 51.4376 15.5254 51.4296C5.46673 51.4271 6.07611 50.7504 6.62975 60.6976C9.85669 118.726 31.5903 178.489 86.7465 206.198C86.9658 206.308 87.1624 206.4 87.4098 206.321C117.8 192.595 142.586 160.215 154.164 129.479C162.233 108.059 166.356 85.333 167.732 62.5184C168.581 48.4501 169.094 51.9814 156.903 51.8969C127.158 51.6911 100.962 33.0987 87.4098 7.1266Z" fill="white"/>
<path d="M172.7 37.9551C168.19 38.818 168.467 33.0305 167.015 30.2567C163.178 22.9314 152.379 24.4171 154.449 19.1275C155.817 15.6293 165.048 17.8769 167.939 8.35871C168.631 6.08141 168.394 3.78318 170.841 2.634C174.889 2.21031 174.624 5.96376 175.687 8.8451C178.921 17.6166 187.252 15.7677 189.057 19.0761C191.258 23.1114 184.071 23.7612 181.926 24.8128C174.532 28.436 176.267 36.2378 172.7 37.9551ZM171.768 15.252C170.232 17.2804 168.716 19.0595 166.541 20.4357C169.016 21.9705 171.104 25.1698 171.768 25.552C173.211 23.2376 174.631 21.7187 177.051 20.4357C174.834 19.0681 173.13 17.4886 171.768 15.252Z" fill="white"/>
<path d="M23.252 67.0434C42.5157 68.0172 68.6319 55.5877 81.6535 42.2072C83.2398 40.5775 84.494 38.5564 86.4753 37.3566C89.6667 37.1362 91.4746 40.8163 93.4546 42.8135C106.329 55.7947 125.586 64.4203 143.515 66.5651C145.343 66.7837 150.385 66.5865 151.43 68.5089C153.107 71.595 147.808 99.148 146.723 103.697C139.664 133.29 125.159 161.859 100.621 180.604C96.7746 183.541 92.6934 186.738 88.3279 188.854C85.8714 189.365 83.8418 187.542 81.8893 186.308C45.7157 163.423 30.0274 126.4 24.6827 84.7716C23.9416 78.9976 22.8472 72.8646 23.252 67.0434ZM87.4099 45.8965C84.6018 48.214 82.1294 50.894 79.2895 53.1925C67.5362 62.7043 52.6405 69.4368 37.6829 71.9735C35.1045 72.4108 32.4968 72.6913 29.9986 73.4924C30.4218 82.5411 32.2304 92.3916 34.2269 101.23C40.2625 127.953 49.9776 150.9 70.3479 169.478C73.1027 171.99 84.0537 180.871 87.013 181.688L87.4099 181.594C106.072 172.459 122.409 149.759 130.426 131.425C138.521 112.915 143.252 93.6159 145.056 73.4924C123.636 69.7357 104.842 63.6731 89.0034 47.4674C88.5514 47.005 87.9647 46.1843 87.4099 45.8965Z" fill="white"/>
<path d="M73.0849 72.5577C70.8684 72.6263 68.5816 70.819 69.4286 68.3839C70.079 66.5142 73.8253 64.1875 75.6216 63.3858C82.4221 62.9602 79.3244 69.9389 73.0849 72.5577Z" fill="white"/>
<path d="M46.7212 107.784C39.5937 108.178 38.5709 80.0624 39.4804 78.6979C40.554 77.0878 49.307 76.2635 51.674 75.618C54.7736 74.7722 58.6338 73.0457 61.6029 72.5576C64.1739 72.0138 66.0731 74.7091 64.7012 77.0156C62.6887 80.3999 49.6236 82.6978 45.7763 83.6581C44.9703 90.7342 48.1678 97.6854 49.7914 104.424C49.2751 106.169 48.5022 107.122 46.7212 107.784Z" fill="white"/>
<path d="M112.283 125.788C107.785 127.112 107.681 122.136 106.548 119.165C102.404 108.297 89.6266 110.772 91.0039 105.254C91.655 102.646 97.2527 102.144 99.8929 100.647C108.327 95.8634 105.981 88.061 109.876 85.9174C114.398 85.5114 113.825 89.8909 115.026 92.9409C118.935 102.866 129.034 101.35 130.935 104.352C132.941 107.519 128.891 108.632 126.97 109.161C113.028 113 116.161 123.442 112.283 125.788ZM110.931 98.6984C108.365 102.115 106.87 103.611 103.315 106.061C104.934 107.037 106.499 108.028 107.798 109.425C108.42 110.094 110.328 113.208 110.931 113.331C113.03 110.38 115.141 107.698 118.456 106.061C113.878 102.703 114.011 101.785 110.931 98.6984Z" fill="white"/>
</svg>
