<svg width="895" height="398" viewBox="0 0 895 398" fill="none" xmlns="http://www.w3.org/2000/svg">
<path d="M894.5 1.00049C718.5 22.5 653.813 87.5841 477 247.5C330.5 380.001 262.5 390 1 397" stroke="black" stroke-dasharray="23 23"/>
<path d="M705.605 60.2615C696.085 67.832 691.938 82.0799 697.665 92.9142C690.047 83.3144 675.335 81.3777 664.574 87.0462C674.091 79.4721 678.24 65.2278 672.514 54.3935C680.128 63.9957 694.842 65.9264 705.601 60.2639L705.605 60.2615Z" fill="black"/>
<path d="M305.084 361.321C293.871 366.033 286.023 378.627 288.604 390.607C283.868 379.304 270.229 373.458 258.336 376.003C269.547 371.287 277.397 358.697 274.816 346.717C279.547 358.021 293.189 363.862 305.08 361.322L305.084 361.321Z" fill="black"/>
</svg>
