<svg width="1086" height="198" viewBox="0 0 1086 198" fill="none" xmlns="http://www.w3.org/2000/svg">
<path d="M0 56.5C13.5 56.5 218 -41.5 529.5 104C778.7 220.4 1003.67 203.5 1085 180.5" stroke="black" stroke-dasharray="23 23"/>
<path d="M204.22 23.9157C192.13 25.246 181.026 35.0899 180.096 47.3091C178.768 35.1262 167.353 25.6447 155.227 24.704C167.316 23.3693 178.421 13.5299 179.351 1.31071C180.674 13.4936 192.094 22.9707 204.216 23.9158L204.22 23.9157Z" fill="black"/>
<path d="M733.055 173.098C721.029 171.276 707.768 177.935 703.727 189.504C705.576 177.39 696.982 165.293 685.505 161.266C697.531 163.084 710.792 156.43 714.832 144.86C712.979 156.974 721.579 169.068 733.05 173.097L733.055 173.098Z" fill="black"/>
</svg>
