<svg width="641" height="480" viewBox="0 0 641 480" fill="none" xmlns="http://www.w3.org/2000/svg">
<path d="M1 479C16.5 427.333 89.7 325.4 258.5 331C469.5 338 563.5 251 584 184.5C604.5 118 584 73 640 0.5" stroke="black" stroke-dasharray="23 23"/>
<path d="M548.369 243.739C539.82 252.39 537.402 267.031 544.38 277.105C535.672 268.482 520.833 268.314 510.825 275.226C519.371 266.571 521.792 251.933 514.814 241.859C523.519 250.485 538.358 250.647 548.366 243.742L548.369 243.739Z" fill="black"/>
<path d="M106.611 362.272C97.0854 369.834 92.9263 384.079 98.6439 394.918C91.0342 385.312 76.3234 383.363 65.5576 389.022C75.0811 381.456 79.2426 367.215 73.525 356.376C81.131 365.985 95.8431 367.928 106.608 362.274L106.611 362.272Z" fill="black"/>
</svg>
